<svg width="15" height="15" viewBox="0 0 15 15" fill="none" xmlns="http://www.w3.org/2000/svg">
<path opacity="0.972" fill-rule="evenodd" clip-rule="evenodd" d="M6.85547 0C7.28517 0 7.71483 0 8.14453 0C10.7829 0.31038 12.7702 1.60921 14.1064 3.89648C14.6002 4.82748 14.8981 5.81382 15 6.85547C15 7.28517 15 7.71483 15 8.14453C14.6896 10.7829 13.3908 12.7702 11.1035 14.1064C10.1725 14.6002 9.18618 14.8981 8.14453 15C7.71483 15 7.28517 15 6.85547 15C4.21714 14.6896 2.22984 13.3908 0.893555 11.1035C0.399753 10.1725 0.101901 9.18618 0 8.14453C0 7.71483 0 7.28517 0 6.85547C0.31038 4.21714 1.60921 2.22984 3.89648 0.893555C4.82748 0.399753 5.81382 0.101901 6.85547 0ZM6.91406 1.20117C9.54249 1.09187 11.5591 2.13679 12.9639 4.33594C13.9469 6.15627 14.0641 8.03127 13.3154 9.96094C12.4261 11.9172 10.9368 13.1525 8.84766 13.667C6.37878 14.1136 4.31335 13.4056 2.65137 11.543C1.11661 9.56051 0.794341 7.39254 1.68457 5.03906C2.48487 3.30135 3.78858 2.11482 5.5957 1.47949C6.03167 1.35035 6.47112 1.25758 6.91406 1.20117Z" fill="white"/>
</svg>
