<svg width="57" height="75" viewBox="0 0 57 75" fill="none" xmlns="http://www.w3.org/2000/svg">
<path d="M55.2189 75C55.0406 75 54.8625 75 54.6844 74.8241L1.24693 55.6638C0.534429 55.4878 0 54.7849 0 54.0815V21.0339C0 20.3306 0.534429 19.6274 1.24693 19.4519L54.6844 0.115501C55.2189 -0.0603406 55.7531 -0.0603411 56.2875 0.291364C56.8219 0.642844 57 1.17019 57 1.69776V73.0665C57 73.5937 56.6439 74.1211 56.2875 74.4728C55.9314 75 55.575 75 55.2189 75ZM3.56271 52.8512L53.4375 70.7814V4.33443L3.56271 22.2647V52.8512Z" fill="#183651"/>
</svg>
