<svg width="139" height="88" viewBox="0 0 139 88" fill="none" xmlns="http://www.w3.org/2000/svg">
<path fill-rule="evenodd" clip-rule="evenodd" d="M85.6395 0.0369821C88.9001 -0.234831 91.4088 0.991691 93.1659 3.71653C93.5246 4.4341 93.8218 5.17744 94.0579 5.94656C94.4981 9.02196 93.5503 11.5679 91.2146 13.5844C87.0211 16.132 83.3601 15.5187 80.2317 11.7446C78.4611 8.60672 78.6468 5.59618 80.7892 2.71302C82.1108 1.25587 83.7276 0.36386 85.6395 0.0369821Z" fill="white"/>
<path opacity="0.989" fill-rule="evenodd" clip-rule="evenodd" d="M40.0354 1.59791C44.5102 1.55748 47.242 3.71317 48.2308 8.065C48.6737 11.6206 47.3543 14.2781 44.2725 16.0374C40.5517 17.6326 37.3366 16.945 34.6276 13.9746C32.9703 11.4541 32.6729 8.77804 33.7356 5.94647C35.0761 3.4077 37.1761 1.95818 40.0354 1.59791Z" fill="white"/>
<path fill-rule="evenodd" clip-rule="evenodd" d="M62.7817 45.3065C65.5044 45.8316 67.53 44.8653 68.8585 42.4075C69.3355 41.2212 69.354 40.0318 68.9143 38.8394C68.9281 38.7717 68.9652 38.7346 69.0258 38.7279C69.1431 38.7113 69.2546 38.7298 69.3603 38.7837C73.0389 42.4041 76.7556 45.9722 80.5104 49.4878C85.1411 52.6571 89.8241 52.7315 94.5596 49.7108C98.9403 46.1799 100.408 41.7013 98.9639 36.2749C96.4324 30.3354 91.9537 27.6779 85.528 28.3025C82.8183 28.8863 80.5325 30.2056 78.6706 32.2608C77.4827 34.0956 75.7915 34.8575 73.5973 34.5466C70.6198 33.6489 69.4119 31.6605 69.9735 28.5813C70.1679 28.0813 70.3909 27.5982 70.6425 27.1318C76.8438 19.8542 84.5931 17.3825 93.8906 19.7169C102.637 22.8137 107.598 28.9649 108.776 38.1704C109.212 47.2453 105.551 54.1026 97.7931 58.7424C91.6461 61.8585 85.3648 62.0815 78.9494 59.4114C77.3102 58.6628 75.7864 57.7337 74.3778 56.6239C70.6636 53.0213 66.9097 49.4533 63.1162 45.9198C62.8812 45.7788 62.7697 45.5745 62.7817 45.3065Z" fill="white"/>
<path opacity="0.992" fill-rule="evenodd" clip-rule="evenodd" d="M69.0258 38.728C68.9652 38.7347 68.9281 38.7719 68.9143 38.8395C69.354 40.0319 69.3355 41.2213 68.8585 42.4076C67.53 44.8654 65.5044 45.8317 62.7817 45.3066C62.4162 45.1607 62.0817 44.9563 61.7782 44.6934C57.8352 40.7875 53.8583 36.9222 49.8475 33.0972C46.6806 30.2462 43.0011 29.2799 38.8089 30.1982C34.0263 31.7104 31.1088 34.9254 30.056 39.8431C29.5561 46.1132 32.1764 50.4804 37.9168 52.9445C42.3765 54.2518 46.3534 53.397 49.8475 50.3799C50.4819 49.6342 51.151 48.928 51.8545 48.2614C53.7881 47.0277 55.7207 47.0277 57.6526 48.2614C59.7203 50.2309 59.999 52.4423 58.4889 54.8958C53.4568 60.9505 47.0083 63.5708 39.1434 62.7566C31.2633 61.5958 25.6325 57.4145 22.2509 50.2127C19.0537 41.8864 20.2802 34.3043 25.9304 27.4664C31.1057 22.1426 37.4055 19.8569 44.8299 20.6091C48.7189 21.3097 52.2127 22.8707 55.3111 25.2921C59.7252 29.4279 64.0738 33.6092 68.3567 37.836C68.6281 38.106 68.8511 38.4034 69.0258 38.728Z" fill="white"/>
<path opacity="0.981" fill-rule="evenodd" clip-rule="evenodd" d="M24.9828 70.6174C27.992 70.3096 30.1662 71.499 31.5056 74.1854C31.6697 74.6563 31.7812 75.1395 31.8401 75.6349C31.9145 78.088 31.9145 80.541 31.8401 82.994C31.3029 85.7613 29.6489 87.4153 26.8783 87.9559C23.8857 88.2349 21.7487 87.0269 20.467 84.3321C20.285 83.827 20.1735 83.3067 20.1325 82.771C20.0581 80.4666 20.0581 78.1623 20.1325 75.8579C20.5779 73.0157 22.1947 71.2688 24.9828 70.6174ZM25.4288 73.4049C28.01 73.4649 29.2552 74.8029 29.1641 77.419C29.2384 78.6826 29.2384 79.9464 29.1641 81.21C29.3146 83.0108 28.5898 84.293 26.9898 85.0568C25.0836 85.4698 23.7642 84.7822 23.0315 82.994C22.63 80.4204 22.6671 77.8558 23.143 75.3004C23.6182 74.3119 24.3801 73.68 25.4288 73.4049Z" fill="white"/>
<path opacity="0.98" fill-rule="evenodd" clip-rule="evenodd" d="M46.7255 70.6173C49.8971 70.3183 52.1085 71.6192 53.3599 74.5199C53.4706 74.9594 53.545 75.4054 53.5829 75.8579C53.6572 78.1623 53.6572 80.4666 53.5829 82.771C53.1494 85.6578 51.4953 87.3861 48.6211 87.9558C46.0161 88.2234 43.9904 87.2757 42.5442 85.1125C42.186 84.4093 41.963 83.666 41.8752 82.8825C41.6556 80.4667 41.6556 78.0508 41.8752 75.6349C42.1971 73.4539 43.3679 71.9114 45.3875 71.0076C45.8472 70.8747 46.2932 70.7446 46.7255 70.6173ZM47.1715 73.4049C48.9009 73.2927 50.0717 74.0361 50.6838 75.6349C51.0038 77.8963 51.041 80.1634 50.7953 82.4365C50.2102 84.7266 48.7793 85.5629 46.5025 84.9453C45.118 84.2035 44.4676 83.0327 44.5513 81.433C44.4769 80.0206 44.4769 78.6083 44.5513 77.1959C44.5023 75.2617 45.3757 73.9981 47.1715 73.4049Z" fill="white"/>
<path opacity="0.97" fill-rule="evenodd" clip-rule="evenodd" d="M0.00634966 70.7288C0.975543 70.6919 1.94189 70.729 2.90539 70.8403C3.9713 73.2324 5.06774 75.611 6.19468 77.9764C7.35422 75.5835 8.45069 73.1676 9.48397 70.7288C10.4504 70.7288 11.4166 70.7288 12.383 70.7288C12.4005 70.8819 12.3819 71.0306 12.3273 71.1748C10.7291 74.3712 9.13085 77.5675 7.5327 80.7639C7.47695 83.1424 7.45837 85.521 7.47695 87.9C6.6221 87.9 5.76726 87.9 4.91241 87.9C4.93099 85.521 4.91241 83.1424 4.85666 80.7639C3.25848 77.5675 1.66028 74.3712 0.0621004 71.1748C0.00746467 71.0306 -0.0111226 70.8819 0.00634966 70.7288Z" fill="white"/>
<path opacity="0.978" fill-rule="evenodd" clip-rule="evenodd" d="M64.1198 70.729C66.7629 70.6802 69.4019 70.7359 72.0364 70.8963C73.9247 71.4093 75.0955 72.6173 75.5487 74.5201C75.993 77.2182 75.0081 79.1694 72.5939 80.3739C73.8973 82.8504 75.1238 85.3592 76.2735 87.9002C75.193 87.9373 74.1152 87.9 73.0399 87.7887C71.9435 85.4472 70.847 83.1057 69.7506 80.7641C68.7751 80.6544 67.7902 80.6173 66.7958 80.6526C66.8145 83.0316 66.7958 85.4103 66.7401 87.7887C65.8481 87.9374 64.9561 87.9374 64.0641 87.7887C63.9717 82.0942 63.9902 76.4077 64.1198 70.729ZM66.7958 73.2935C68.4393 73.2434 70.0745 73.2991 71.7019 73.4608C73.1001 74.3216 73.416 75.4923 72.6497 76.9731C72.2953 77.5316 71.7936 77.8847 71.1444 78.0324C69.6953 78.0881 68.2458 78.1067 66.7958 78.0881C66.7958 76.49 66.7958 74.8917 66.7958 73.2935Z" fill="white"/>
<path opacity="0.967" fill-rule="evenodd" clip-rule="evenodd" d="M85.7509 70.7288C89.319 70.7288 92.887 70.7288 96.4551 70.7288C96.4551 71.6208 96.4551 72.5128 96.4551 73.4048C93.8162 73.4048 91.1774 73.4048 88.5385 73.4048C88.5385 74.9287 88.5385 76.4525 88.5385 77.9764C90.8056 77.9764 93.0729 77.9764 95.3401 77.9764C95.3751 78.8224 95.3379 79.6586 95.2286 80.4852C92.9989 80.5409 90.7688 80.5596 88.5385 80.5409C88.5385 82.102 88.5385 83.663 88.5385 85.224C91.1774 85.224 93.8162 85.224 96.4551 85.224C96.4551 86.116 96.4551 87.008 96.4551 87.9C92.8974 87.9367 89.348 87.8996 85.8067 87.7885C85.7509 82.1021 85.7323 76.4155 85.7509 70.7288Z" fill="white"/>
<path opacity="0.982" fill-rule="evenodd" clip-rule="evenodd" d="M106.267 70.7289C109.798 70.7103 113.33 70.7289 116.86 70.7846C117.008 71.6395 117.008 72.4943 116.86 73.3492C114.222 73.4049 111.582 73.4236 108.943 73.4049C108.943 74.9288 108.943 76.4526 108.943 77.9765C111.21 77.9765 113.478 77.9765 115.745 77.9765C115.745 78.8314 115.745 79.6861 115.745 80.541C113.478 80.541 111.21 80.541 108.943 80.541C108.943 82.102 108.943 83.6631 108.943 85.2241C111.619 85.2241 114.295 85.2241 116.971 85.2241C117.007 86.1072 116.969 86.9806 116.86 87.8444C113.33 87.9001 109.798 87.9187 106.267 87.9001C106.267 82.1764 106.267 76.4526 106.267 70.7289Z" fill="white"/>
<path opacity="0.977" fill-rule="evenodd" clip-rule="evenodd" d="M126.672 70.7289C128.902 70.7103 131.132 70.7289 133.362 70.7846C136.295 71.3478 137.985 73.1132 138.435 76.081C138.535 78.4627 138.498 80.8414 138.324 83.2171C137.614 85.8977 135.885 87.4401 133.139 87.8444C130.994 87.9365 128.856 87.9179 126.728 87.7886C126.672 82.1022 126.653 76.4156 126.672 70.7289ZM129.46 73.4049C134.228 72.5808 136.347 74.5692 135.815 79.3703C135.786 80.5852 135.692 81.7931 135.536 82.9941C135.054 84.2578 134.143 84.9826 132.805 85.1683C131.691 85.2241 130.576 85.2426 129.46 85.2241C129.46 81.2844 129.46 77.3446 129.46 73.4049Z" fill="white"/>
</svg>
