<svg width="94" height="94" viewBox="0 0 94 94" fill="none" xmlns="http://www.w3.org/2000/svg">
<path d="M92.5313 1.46875H24.0874V69.9125H92.5313V1.46875Z" fill="#4FBF9F"/>
<path d="M92.5312 71.3811H24.0875C23.2064 71.3811 22.6187 70.7936 22.6187 69.9125V1.46876C22.6187 0.587543 23.2064 0 24.0875 0H92.5313C93.4125 0 94 0.587543 94 1.46876V69.9126C93.9998 70.6468 93.4123 71.3811 92.5312 71.3811ZM25.5562 68.4438H91.0623V2.93754H25.5562V68.4438Z" fill="#183651"/>
<path d="M86.6561 7.34375H29.9624V64.0375H86.6561V7.34375Z" fill="white"/>
<path d="M80.7813 13.2187H12.3375V81.6624H80.7813V13.2187Z" fill="#E0E4E8"/>
<path d="M80.7813 83.1313H12.3375C11.4562 83.1313 10.8687 82.5438 10.8687 81.6626V13.2188C10.8687 12.3375 11.4562 11.75 12.3375 11.75H80.7813C81.6624 11.75 82.2501 12.3375 82.2501 13.2188V81.6626C82.2501 82.3968 81.6624 83.1313 80.7813 83.1313ZM13.8062 80.1938H79.3124V14.6875H13.8062V80.1938Z" fill="#183651"/>
<path d="M74.9061 19.0937H18.2125V75.7875H74.9061V19.0937Z" fill="white"/>
<path d="M69.9125 24.0874H1.46875V92.5312H69.9125V24.0874Z" fill="#FBBD5E"/>
<path d="M69.9126 93.9999H1.46876C0.587543 93.9999 0 93.4123 0 92.5311V24.0875C0 23.2063 0.587543 22.6186 1.46876 22.6186H69.9126C70.7938 22.6186 71.3813 23.2063 71.3813 24.0875V92.5313C71.3811 93.4122 70.7938 93.9999 69.9126 93.9999ZM2.93754 91.0623H68.4438V25.5561H2.93754V91.0623Z" fill="#183651"/>
<path d="M64.0375 29.9624H7.34375V86.656H64.0375V29.9624Z" fill="white"/>
<path d="M15.5687 49.7904C17.625 48.1747 19.3875 45.6779 19.3875 45.6779L20.5625 45.3842L26.5843 49.2031C32.9 51.8467 31.2843 57.8688 31.2843 57.8688C24.2343 63.8906 17.0375 62.5686 13.3657 61.3938V54.0499C13.5126 52.4341 14.2469 50.8186 15.5687 49.7904Z" fill="#F06151"/>
<path d="M28.347 38.3344L27.7593 37.1592L22.7657 36.2781L19.975 37.8937L17.625 40.6842L17.9187 43.4749L19.3875 45.6779C20.8561 47.7342 22.325 48.7624 23.3532 49.3497C24.675 50.084 26.4375 49.6433 27.1718 48.4685C30.4032 43.6219 28.347 38.3344 28.347 38.3344Z" fill="#FBBD5E"/>
<path d="M28.3466 38.3322C28.3466 38.3322 29.0808 36.8634 28.4935 35.9822C27.906 35.2479 21.003 32.7511 17.9184 36.5697C14.834 40.3886 19.3871 45.6761 19.3871 45.6761C19.3871 45.6761 17.0372 42.2979 18.7997 41.7104C18.7997 41.7104 19.681 41.2697 20.2685 42.7384C20.2685 42.7384 19.681 38.3322 22.4714 38.1854C22.4714 38.1854 23.6466 37.4511 25.8496 39.3606C25.9966 39.5071 27.0246 37.8916 28.3466 38.3322Z" fill="#183651"/>
<path d="M40.0968 37.3064H37.1593V40.3907H40.0968V37.3064Z" fill="#183651"/>
<path d="M45.9718 37.3064H43.0343V40.3907H45.9718V37.3064Z" fill="#183651"/>
<path d="M51.9938 37.3064H49.0563V40.3907H51.9938V37.3064Z" fill="#183651"/>
<path d="M57.8688 37.3064H54.9313V40.3907H57.8688V37.3064Z" fill="#183651"/>
<path d="M57.8688 47.7343H37.1593V50.8189H57.8688V47.7343Z" fill="#CECFD0"/>
<path d="M57.8688 58.1623H37.1593V61.2468H57.8688V58.1623Z" fill="#CECFD0"/>
<path d="M57.8688 68.5905H13.5124V71.6749H57.8688V68.5905Z" fill="#CECFD0"/>
<path d="M57.8688 79.0185H13.5124V82.103H57.8688V79.0185Z" fill="#CECFD0"/>
</svg>
