<svg width="8" height="9" viewBox="0 0 8 9" fill="none" xmlns="http://www.w3.org/2000/svg">
<path opacity="0.97" fill-rule="evenodd" clip-rule="evenodd" d="M4.00253 0.0163089C5.42768 -0.0926095 6.65229 0.344028 7.67631 1.32622C7.38981 1.61774 7.09871 1.90382 6.80303 2.18444C5.59228 1.13037 4.26731 0.964746 2.82813 1.68758C1.49584 2.5716 0.998976 3.8012 1.33754 5.37641C1.69386 6.53576 2.45171 7.29361 3.61106 7.64994C4.82461 7.9364 5.88859 7.66035 6.80303 6.82183C7.09871 7.10245 7.38981 7.38852 7.67631 7.68005C6.24621 8.9974 4.61009 9.32864 2.7679 8.67377C1.17429 7.9517 0.25585 6.72207 0.0125673 4.98494C-0.107312 3.08162 0.630455 1.62115 2.22587 0.603511C2.78497 0.295004 3.37717 0.09927 4.00253 0.0163089Z" fill="white"/>
</svg>
