<svg width="97" height="97" viewBox="0 0 97 97" fill="none" xmlns="http://www.w3.org/2000/svg">
<path d="M95.3374 1.51552H1.51562V64.7696H95.3374V1.51552Z" fill="#E1E6E7"/>
<path d="M95.3351 66.2806H1.51327C0.605347 66.2806 0 65.6751 0 64.7672V1.51327C0 0.605348 0.605347 0 1.51327 0H95.3351C96.243 0 96.8485 0.605348 96.8485 1.51327V64.7672C96.8485 65.524 96.243 66.2806 95.3351 66.2806ZM3.02655 63.254H93.8219V3.02654H3.02655V63.254Z" fill="#183651"/>
<path d="M89.2827 7.56297H7.56675V58.711H89.2827V7.56297Z" fill="white"/>
<path d="M36.9207 38.8905C36.9207 38.8905 49.6321 44.3382 49.4808 52.3585H12.2546C12.2546 52.3585 9.53087 46.9106 25.1173 38.5879L36.9207 38.8905Z" fill="#2CA0DA"/>
<path d="M34.5038 34.4948C34.5038 34.4948 34.3525 37.0674 37.0764 38.8832C37.0764 38.8832 30.5693 43.877 25.2729 38.5808C25.2729 38.5808 26.9376 37.37 26.9376 34.0408L34.5038 34.4948Z" fill="#FBBD5E"/>
<path d="M37.3752 29.3556C37.3752 29.3556 36.1644 35.2575 30.8681 36.0139C30.8681 36.0139 25.5719 35.8626 23.7558 27.9936L22.6964 26.0264V21.4866L24.6638 18.7628L29.3547 18.1575L36.3158 20.5787L38.5856 25.2696L37.3752 29.3556Z" fill="#E1E6E7"/>
<path d="M37.3793 29.3545C37.3793 29.3545 39.9519 23.1502 32.991 22.242C32.991 22.242 30.267 22.5447 27.8457 19.5183C27.8457 19.5183 21.4901 20.5775 23.7599 28.1437C23.7599 28.1437 17.5556 19.2155 27.0889 14.9784C36.6225 10.7414 39.9517 19.2155 39.9517 19.2155C39.9517 19.2155 42.0704 25.5713 37.3793 29.3545Z" fill="#173651"/>
<path d="M92.6098 86.5649L83.5302 81.5709L74.4507 86.5649C72.7859 87.4728 71.7269 89.2886 71.7269 91.2558V95.4927H95.1822V91.2558C95.3335 89.2886 94.2743 87.4728 92.6098 86.5649Z" fill="#4FBF9F"/>
<path d="M95.3353 96.852H71.8798C70.9718 96.852 70.3666 96.2467 70.3666 95.3388V91.1016C70.3666 88.6805 71.7284 86.2594 73.8471 85.2L82.9267 80.2062C83.3806 79.9036 83.9859 79.9036 84.4399 80.2062L93.5196 85.2C95.6381 86.4107 97 88.6805 97 91.1016V95.3388C96.8485 96.2467 96.2432 96.852 95.3353 96.852ZM73.3932 93.8256H93.8219V91.1016C93.8219 89.7397 93.0655 88.5292 91.8547 87.7726L83.5318 83.2328L75.209 87.7726C74.1496 88.5292 73.3932 89.7397 73.3932 91.1016V93.8256Z" fill="#183651"/>
<path d="M89.4336 76.272C89.4336 80.2065 86.861 84.7463 83.5318 84.7463C80.2027 84.7463 77.6301 80.2065 77.6301 76.272C77.6301 72.3375 80.2027 70.219 83.5318 70.219C86.861 70.219 89.4336 72.3375 89.4336 76.272Z" fill="white"/>
<path d="M83.6848 86.2573C79.4479 86.2573 76.27 80.9609 76.27 76.2696C76.27 71.7298 79.2964 68.7033 83.6848 68.7033C88.0733 68.7033 91.0999 71.7298 91.0999 76.2696C90.9484 80.9609 87.922 86.2573 83.6848 86.2573ZM83.6848 71.8814C80.9611 71.8814 79.2964 73.5461 79.2964 76.4212C79.2964 79.7504 81.5661 83.3822 83.6848 83.3822C85.8035 83.3822 88.0733 79.7504 88.0733 76.4212C87.922 73.5459 86.4086 71.8814 83.6848 71.8814Z" fill="#183651"/>
<path d="M69.1556 86.5649L60.076 81.5709L50.9963 86.5649C49.3318 87.4728 48.2725 89.2886 48.2725 91.2558V95.4927H71.8794V91.2558C71.8796 89.2886 70.8203 87.4728 69.1556 86.5649Z" fill="#FBBD5E"/>
<path d="M71.8772 96.852H48.4217C47.5138 96.852 46.9085 96.2467 46.9085 95.3388V91.1016C46.9085 88.6805 48.2704 86.2594 50.3891 85.2L59.4686 80.2062C59.9226 79.9036 60.5279 79.9036 60.9818 80.2062L70.0616 85.2C72.1801 86.4107 73.542 88.6805 73.542 91.1016V95.3388C73.3904 96.2467 72.7852 96.852 71.8772 96.852ZM49.9349 93.8256H70.3637V91.1016C70.3637 89.7397 69.6073 88.5292 68.3965 87.7726L60.0735 83.2328L51.7508 87.7726C50.54 88.3779 49.7834 89.7397 49.7834 91.1016V93.8256H49.9349Z" fill="#183651"/>
<path d="M65.9793 76.272C65.9793 80.2065 63.4066 84.7463 60.0776 84.7463C56.7486 84.7463 54.176 80.2065 54.176 76.272C54.176 72.3375 56.7486 70.219 60.0776 70.219C63.4066 70.219 65.9793 72.3375 65.9793 76.272Z" fill="white"/>
<path d="M60.2268 86.2573C55.9898 86.2573 52.8119 80.9609 52.8119 76.2696C52.8119 71.7298 55.8383 68.7033 60.2268 68.7033C64.6153 68.7033 67.6418 71.7298 67.6418 76.2696C67.4903 80.9609 64.4639 86.2573 60.2268 86.2573ZM60.2268 71.8814C57.503 71.8814 55.8383 73.5461 55.8383 76.4212C55.8383 79.7504 58.1081 83.3822 60.2268 83.3822C62.3455 83.3822 64.6153 79.7504 64.6153 76.4212C64.4639 73.5459 62.9505 71.8814 60.2268 71.8814Z" fill="#183651"/>
<path d="M45.7012 86.5649L36.6217 81.5709L27.5421 86.5649C25.8774 87.4728 24.8184 89.2886 24.8184 91.2558V95.4927H48.2737V91.2558C48.4254 89.2886 47.366 87.4728 45.7012 86.5649Z" fill="#4FBF9F"/>
<path d="M48.4231 96.852H24.9676C24.0596 96.852 23.4542 96.2467 23.4542 95.3388V91.1016C23.4542 88.6805 24.816 86.2594 26.9347 85.2L36.0145 80.2062C36.4684 79.9036 37.0737 79.9036 37.5277 80.2062L46.6072 85.2C48.7259 86.4107 50.0878 88.6805 50.0878 91.1016V95.3388C49.9363 96.2467 49.331 96.852 48.4231 96.852ZM26.4808 93.8256H46.9097V91.1016C46.9097 89.7397 46.1531 88.5292 44.9425 87.7726L36.6196 83.2328L28.2966 87.7726C27.2374 88.5292 26.4808 89.7397 26.4808 91.1016V93.8256Z" fill="#183651"/>
<path d="M42.5251 76.272C42.5251 80.2065 39.9525 84.7463 36.6234 84.7463C33.2942 84.7463 30.7216 80.2065 30.7216 76.272C30.7216 72.3375 33.2942 70.219 36.6234 70.219C39.9525 70.219 42.5251 72.3375 42.5251 76.272Z" fill="white"/>
<path d="M36.7726 86.2573C32.5355 86.2573 29.3576 80.9609 29.3576 76.2696C29.3576 71.7298 32.3841 68.7033 36.7726 68.7033C41.1611 68.7033 44.1875 71.7298 44.1875 76.2696C44.0361 80.9609 41.0098 86.2573 36.7726 86.2573ZM36.7726 71.8814C34.0489 71.8814 32.3841 73.5461 32.3841 76.4212C32.3841 79.7504 34.6539 83.3822 36.7726 83.3822C38.8911 83.3822 41.1611 79.7504 41.1611 76.4212C41.0098 73.5459 39.4966 71.8814 36.7726 71.8814Z" fill="#183651"/>
<path d="M22.2471 86.5649L13.1675 81.5709L4.08781 86.5649C2.42316 87.4728 1.36405 89.2886 1.36405 91.2558V95.4927H24.9708V91.2558C24.9708 89.2886 23.9116 87.4728 22.2471 86.5649Z" fill="#FBBD5E"/>
<path d="M24.9687 96.852H1.51327C0.605347 96.852 0 96.2467 0 95.3388V91.1016C0 88.6805 1.36189 86.2594 3.48051 85.2L12.5601 80.2062C13.0141 79.9036 13.6195 79.9036 14.0734 80.2062L23.1531 85.2C25.2717 86.4107 26.6336 88.6805 26.6336 91.1016V95.3388C26.4819 96.2467 25.8766 96.852 24.9687 96.852ZM3.02655 93.8256H23.4553V91.1016C23.4553 89.7397 22.6989 88.5292 21.4882 87.7726L13.1653 83.2328L4.84238 87.7726C3.78309 88.5292 3.02655 89.7397 3.02655 91.1016V93.8256Z" fill="#183651"/>
<path d="M19.067 76.272C19.067 80.2065 16.4944 84.7463 13.1653 84.7463C9.83618 84.7463 7.26359 80.2065 7.26359 76.272C7.26359 72.3375 9.83618 70.219 13.1653 70.219C16.4944 70.219 19.067 72.3375 19.067 76.272Z" fill="white"/>
<path d="M13.3183 86.2573C9.08126 86.2573 5.90334 80.9609 5.90334 76.2696C5.90334 71.7298 8.92988 68.7033 13.3183 68.7033C17.7067 68.7033 20.7333 71.7298 20.7333 76.2696C20.582 80.9609 17.5554 86.2573 13.3183 86.2573ZM13.3183 71.8814C10.5945 71.8814 8.92988 73.5461 8.92988 76.4212C8.92988 79.7504 11.1997 83.3822 13.3183 83.3822C15.4369 83.3822 17.7067 79.7504 17.7067 76.4212C17.5554 73.5459 16.0421 71.8814 13.3183 71.8814Z" fill="#183651"/>
<path d="M59.0174 15.1262H55.9908V18.1527H59.0174V15.1262Z" fill="#183651"/>
<path d="M67.4934 15.1262H64.4671V18.1527H67.4934V15.1262Z" fill="#183651"/>
<path d="M76.1175 15.1262H73.0909V18.1527H76.1175V15.1262Z" fill="#183651"/>
<path d="M84.7413 15.1262H81.7148V18.1527H84.7413V15.1262Z" fill="#183651"/>
<path d="M84.7429 26.1748H55.9908V29.2014H84.7429V26.1748Z" fill="#183651"/>
<path d="M84.7429 37.0721H55.9908V40.0987H84.7429V37.0721Z" fill="#183651"/>
<path d="M84.7429 47.9694H55.9908V50.996H84.7429V47.9694Z" fill="#183651"/>
</svg>
