<svg width="14" height="14" viewBox="0 0 14 14" fill="none" xmlns="http://www.w3.org/2000/svg">
<g clip-path="url(#clip0_44_22)">
<path opacity="0.99" fill-rule="evenodd" clip-rule="evenodd" d="M8.24414 -0.0136719C8.72722 -0.0136719 9.21028 -0.0136719 9.69336 -0.0136719C9.99898 0.016374 10.3089 0.0437177 10.623 0.0683594C10.623 0.815754 10.623 1.56315 10.623 2.31055C10.0573 2.3022 9.49222 2.31588 8.92773 2.35156C8.39896 2.44291 8.12096 2.75737 8.09375 3.29492C8.08008 3.8964 8.07551 4.49796 8.08008 5.09961C8.90039 5.09961 9.7207 5.09961 10.541 5.09961C10.4363 5.93761 10.336 6.77616 10.2402 7.61523C9.52019 7.61523 8.80012 7.61523 8.08008 7.61523C8.08008 9.73894 8.08008 11.8626 8.08008 13.9863C7.21418 13.9863 6.34832 13.9863 5.48242 13.9863C5.48242 11.8626 5.48242 9.73894 5.48242 7.61523C4.77148 7.61523 4.06055 7.61523 3.34961 7.61523C3.34961 6.77668 3.34961 5.93816 3.34961 5.09961C4.06055 5.09961 4.77148 5.09961 5.48242 5.09961C5.47192 4.29696 5.48559 3.49486 5.52344 2.69336C5.75553 1.10773 6.66244 0.205387 8.24414 -0.0136719Z" fill="white"/>
</g>
<defs>
<clipPath id="clip0_44_22">
<rect width="14" height="14" fill="white"/>
</clipPath>
</defs>
</svg>
