<svg width="611" height="459" viewBox="0 0 611 459" fill="none" xmlns="http://www.w3.org/2000/svg">
<g clip-path="url(#clip0_4_5)">
<path d="M611 305.666C611 136.898 474.176 0 305.5 0C136.824 0 0 136.898 0 305.666C0 361.588 15.0246 413.902 41.2675 459H569.933C595.975 413.902 611 361.588 611 305.666Z" fill="#FD5445"/>
<g clip-path="url(#clip1_4_5)">
<path d="M164.229 355.257L120.699 374.576L111.156 353.026C107.741 345.315 106.104 338.945 106.332 334.113C106.559 329.281 108.636 322.209 111.99 312.677L122.538 284.103C123.82 279.513 123.389 274.263 121.025 268.925C118.661 263.587 115.064 259.742 110.433 257.303C105.889 255.061 101.144 255.038 96.1973 257.234C91.2507 259.429 88.0587 263.448 86.6212 269.29C85.1837 275.132 85.6566 281.546 88.017 289.015L42.5086 309.211C36.28 289.266 36.5511 271.167 43.4096 255.112C50.3783 238.772 62.8541 226.848 80.6617 218.945C98.4694 211.042 115.102 209.574 130.67 214.257C146.239 218.939 157.733 229.924 165.35 247.124C168.764 254.835 170.226 260.81 170.109 265.356C169.794 269.991 169.745 273.088 169.654 275.021C169.563 276.954 168.833 280.116 167.551 284.707C166.182 289.099 165.364 292.064 164.813 293.492C162.276 300.059 159.849 306.34 157.445 312.138C155.041 317.937 153.957 322.439 153.71 325.624C153.463 328.809 154.621 333.026 156.897 338.167L164.427 355.169L164.229 355.257ZM149.327 426.925C142.192 424.177 137.191 419.3 134.126 412.38C130.975 405.263 130.722 398.278 133.568 391.338C136.325 384.2 141.211 379.193 148.136 376.12C155.259 372.959 162.245 372.697 169.183 375.532C176.318 378.279 181.319 383.156 184.384 390.076C187.536 397.193 187.788 404.178 184.942 411.119C182.185 418.256 177.3 423.263 170.374 426.337C163.251 429.498 156.265 429.76 149.327 426.925Z" fill="black"/>
<path d="M171.25 428.314C163.731 431.651 156.063 431.978 148.555 428.923C141.134 426.066 135.475 420.771 132.148 413.258C128.821 405.746 128.504 398.08 131.57 390.569C134.438 383.145 139.741 377.48 147.26 374.143C154.779 370.806 162.447 370.478 169.955 373.533C177.376 376.39 183.035 381.685 186.362 389.198C189.689 396.711 190.006 404.377 186.94 411.888C184.072 419.311 178.769 424.977 171.25 428.314ZM149.011 378.097C142.482 380.995 138.103 385.54 135.566 392.107C133.028 398.674 133.216 404.978 136.105 411.502C138.994 418.026 143.535 422.399 150.099 424.926C156.664 427.454 162.969 427.257 169.499 424.36C176.028 421.462 180.407 416.916 182.945 410.349C185.482 403.782 185.294 397.479 182.405 390.954C179.516 384.43 174.975 380.058 168.411 377.53C161.846 375.003 155.541 375.199 149.011 378.097ZM167.083 356.356L119.596 377.431L109.177 353.904C105.588 345.798 103.863 339.23 104.201 334.112C104.538 328.995 106.33 321.813 109.993 311.907L120.738 283.246C121.799 279.227 121.433 274.658 119.244 269.715C117.055 264.773 113.832 261.235 109.661 259.302C105.49 257.368 101.426 257.279 97.0728 259.211C92.7198 261.143 89.9463 264.502 88.7294 269.774C87.3147 275.133 87.8979 281.261 90.0832 288.334L90.5858 290.004L41.1201 311.957L40.3549 309.694C33.9512 289.353 34.3554 270.486 41.522 254.058C48.6886 237.63 61.5829 225.047 79.7862 216.968C98.1874 208.802 115.501 207.268 131.355 212.06C147.296 217.05 159.449 228.453 167.241 246.049C170.743 253.957 172.38 260.327 172.042 265.445C171.727 270.079 171.678 273.176 171.587 275.109C171.584 277.24 170.941 280.6 169.462 285.278C168.18 289.869 167.077 292.724 166.525 294.151C163.988 300.718 161.561 307 159.157 312.798C156.864 318.31 155.692 322.615 155.556 325.515C155.332 328.216 156.402 332.236 158.503 336.981L167.083 356.356ZM121.802 371.72L161.375 354.158L154.633 338.935C152.182 333.399 151.135 328.896 151.294 325.514C151.453 322.131 152.735 317.541 155.249 311.457C157.653 305.659 160.08 299.378 162.617 292.811C163.169 291.383 164.074 288.616 165.443 284.223C167.143 278.974 167.367 276.272 167.325 275.108C167.416 273.175 167.576 269.793 167.693 265.246C167.985 261.095 166.325 255.208 163.173 248.09C155.906 231.681 144.785 221.003 129.986 216.453C115.099 211.705 98.9492 213.195 81.5373 220.922C64.3232 228.562 52.2432 240.31 45.4075 255.882C38.9903 270.794 38.3917 287.619 43.8096 306.269L85.3608 287.828C83.4608 280.865 83.1858 274.363 84.513 268.806C86.1711 262.393 89.8692 257.913 95.4093 255.454C100.949 252.996 106.376 252.953 111.578 255.612C116.693 258.073 120.465 262.313 123.091 268.244C125.718 274.176 126.236 279.623 124.821 284.982L114.164 313.841C110.721 323.176 108.842 330.16 108.527 334.794C108.323 339.143 109.872 345.316 113.112 352.631L121.604 371.808L121.802 371.72Z" fill="white"/>
</g>
</g>
<defs>
<clipPath id="clip0_4_5">
<rect width="611" height="459" fill="white"/>
</clipPath>
<clipPath id="clip1_4_5">
<rect width="142.006" height="230.278" fill="white" transform="matrix(0.914029 -0.405648 0.404921 0.914352 12.3151 246.912)"/>
</clipPath>
</defs>
</svg>
