<svg width="15" height="15" viewBox="0 0 15 15" fill="none" xmlns="http://www.w3.org/2000/svg">
<path opacity="0.979" fill-rule="evenodd" clip-rule="evenodd" d="M4.80469 0C6.61134 0 8.41796 0 10.2246 0C10.8449 0.0136573 11.4601 0.0966639 12.0703 0.24902C13.5238 0.716134 14.4466 1.6878 14.8389 3.16402C14.9081 3.49788 14.9618 3.82992 15 4.16009C15 6.35733 15 8.55456 15 10.7518C14.9578 11.6626 14.6892 12.5024 14.1943 13.2713C13.4375 14.253 12.4365 14.8047 11.1914 14.9265C10.8742 14.9491 10.5617 14.9735 10.2539 14.9998C8.4375 14.9998 6.62109 14.9998 4.80469 14.9998C3.86312 15.0077 2.96467 14.8075 2.10938 14.3992C0.823031 13.5978 0.144321 12.4308 0.0732422 10.8983C0.046856 10.21 0.022442 9.52647 0 8.84752C0 7.94909 0 7.05069 0 6.15225C0.0227645 5.49285 0.0471785 4.82878 0.0732422 4.16009C0.113562 2.80582 0.655553 1.70721 1.69922 0.864245C2.23637 0.483564 2.83208 0.239427 3.48633 0.131834C3.92789 0.0637687 4.36734 0.0198241 4.80469 0ZM5.30273 1.37693C6.78715 1.37205 8.2715 1.37693 9.75586 1.39158C10.236 1.39652 10.7145 1.42581 11.1914 1.47947C12.3618 1.63447 13.1186 2.27411 13.4619 3.39839C13.5435 3.69577 13.5923 3.99849 13.6084 4.30658C13.667 6.44522 13.667 8.58386 13.6084 10.7225C13.5992 11.801 13.1451 12.6262 12.2461 13.198C11.5965 13.4974 10.9129 13.6341 10.1953 13.6082C8.2224 13.6615 6.24976 13.6518 4.27734 13.5789C2.63834 13.473 1.70572 12.6087 1.47949 10.9862C1.45149 10.6351 1.43196 10.2835 1.4209 9.93149C1.40137 8.31043 1.40137 6.68934 1.4209 5.06828C1.39745 4.35345 1.50487 3.66009 1.74316 2.98824C2.14686 2.15845 2.80604 1.66529 3.7207 1.50877C4.25013 1.43565 4.77747 1.39171 5.30273 1.37693ZM7.35352 5.00969C8.69136 5.02481 9.55562 5.66933 9.94629 6.94326C10.1381 7.98911 9.82072 8.8436 8.99414 9.50669C7.95665 10.1742 6.94102 10.1449 5.94727 9.4188C4.97133 8.48606 4.79068 7.41674 5.40527 6.21084C5.86482 5.50225 6.51422 5.10186 7.35352 5.00969Z" fill="white"/>
<path opacity="0.962" fill-rule="evenodd" clip-rule="evenodd" d="M11.3969 2.57812C12.0944 2.5871 12.4411 2.93868 12.437 3.63286C12.2897 4.21871 11.9137 4.46774 11.309 4.37997C10.7686 4.19278 10.5488 3.8168 10.6498 3.25198C10.7671 2.87564 11.0162 2.65102 11.3969 2.57812Z" fill="white"/>
<path opacity="0.975" fill-rule="evenodd" clip-rule="evenodd" d="M7.20752 3.6331C8.77899 3.58133 9.99486 4.20635 10.8551 5.50818C11.6765 7.0791 11.5593 8.57331 10.5036 9.99081C9.41493 11.1772 8.08186 11.5923 6.50436 11.236C4.8496 10.7042 3.90716 9.57624 3.67708 7.85204C3.5867 6.26021 4.20685 5.03458 5.53752 4.17511C6.06076 3.87859 6.61742 3.6979 7.20752 3.6331ZM7.35401 5.01011C6.51467 5.10229 5.86525 5.5027 5.40568 6.21134C4.79106 7.41732 4.97171 8.4867 5.94769 9.4195C6.94149 10.1457 7.95717 10.175 8.99471 9.50739C9.82133 8.84426 10.1387 7.98971 9.9469 6.9438C9.55621 5.66979 8.69191 5.02523 7.35401 5.01011Z" fill="white"/>
</svg>
