<svg width="23" height="23" viewBox="0 0 23 23" fill="none" xmlns="http://www.w3.org/2000/svg">
<path opacity="0.972" fill-rule="evenodd" clip-rule="evenodd" d="M11.2978 1.86427C11.9002 1.8313 12.2821 2.10083 12.4433 2.67286C12.4583 6.08692 12.4733 9.50099 12.4883 12.915C13.5589 11.8444 14.6296 10.7738 15.7002 9.70313C16.5664 9.34255 17.0904 9.61953 17.2724 10.5342C17.2527 10.7454 17.1853 10.9401 17.0703 11.1182C15.4007 12.7878 13.7311 14.4574 12.0615 16.127C11.6722 16.3366 11.2829 16.3366 10.8935 16.127C9.22393 14.4574 7.55436 12.7878 5.88475 11.1182C5.57263 10.5476 5.66993 10.061 6.17674 9.65821C6.54317 9.49905 6.90254 9.51406 7.25487 9.70313C8.32549 10.7738 9.39616 11.8444 10.4668 12.915C10.4817 9.50099 10.4967 6.08692 10.5117 2.67286C10.6022 2.23056 10.8642 1.96103 11.2978 1.86427Z" fill="white"/>
<path opacity="0.988" fill-rule="evenodd" clip-rule="evenodd" d="M2.58297 18.1709C8.51266 18.1634 14.4423 18.1709 20.372 18.1934C20.8343 18.3458 21.0739 18.6677 21.0908 19.1592C21.0582 19.6061 20.8336 19.9131 20.417 20.0801C14.4573 20.11 8.4977 20.11 2.53805 20.0801C1.97414 19.8262 1.77199 19.3995 1.9316 18.7998C2.05622 18.4879 2.27334 18.2783 2.58297 18.1709Z" fill="white"/>
</svg>
