<svg width="97" height="98" viewBox="0 0 97 98" fill="none" xmlns="http://www.w3.org/2000/svg">
<path d="M57.9264 47.2837C55.3416 49.2601 52.1489 50.4764 48.5 50.4764C45.0031 50.4764 41.6583 49.2601 39.0738 47.2837C32.0799 50.7806 27.2147 57.9262 27.2147 66.2883V73.2822H69.7853V66.2883C69.7853 57.9264 64.9201 50.6286 57.9264 47.2837Z" fill="white"/>
<path d="M69.7851 74.8013H27.2147C26.3026 74.8013 25.6943 74.1929 25.6943 73.2808V66.287C25.6943 57.6211 30.5595 49.7151 38.4654 45.914C38.9216 45.6101 39.6819 45.7619 40.1381 46.066C42.5705 48.0427 45.4593 48.9548 48.6522 48.9548C51.8451 48.9548 54.5817 47.8905 57.1663 46.066C57.6225 45.762 58.2306 45.6101 58.8388 45.914C66.7447 49.7149 71.6099 57.6209 71.6099 66.287V73.2808C71.3056 74.0409 70.5454 74.8013 69.7851 74.8013ZM28.7352 71.7605H68.265V66.287C68.265 58.9894 64.3119 52.4517 58.0784 48.9548C55.1899 50.9312 51.9969 51.9955 48.5 51.9955C45.0031 51.9955 41.8106 50.9312 38.9216 48.9548C32.5361 52.4517 28.7352 58.9894 28.7352 66.287V71.7605Z" fill="#183651"/>
<path d="M33.2962 67.2007V66.2884C33.2962 61.5753 35.4249 57.1661 39.0736 54.2773C41.9623 55.6456 45.1553 56.406 48.5 56.406C51.8447 56.406 55.0377 55.6458 57.9262 54.2773C61.5753 57.1661 63.7038 61.4232 63.7038 66.2884V67.2007H33.2962Z" fill="#FBBD5E"/>
<path d="M84.0769 41.8103H81.0362V44.8511H84.0769V41.8103Z" fill="#183651"/>
<path d="M84.0769 47.8918H81.0362V50.9326H84.0769V47.8918Z" fill="#183651"/>
<path d="M84.0769 53.8213H81.0362V56.8622H84.0769V53.8213Z" fill="#183651"/>
<path d="M15.964 41.8103H12.9232V44.8511H15.964V41.8103Z" fill="#183651"/>
<path d="M15.964 47.8918H12.9232V50.9326H15.964V47.8918Z" fill="#183651"/>
<path d="M15.964 53.8213H12.9232V56.8622H15.964V53.8213Z" fill="#183651"/>
<path d="M56.1019 85.7493H53.0612V88.79H56.1019V85.7493Z" fill="#183651"/>
<path d="M50.0204 85.7493H46.9797V88.79H50.0204V85.7493Z" fill="#183651"/>
<path d="M43.9389 85.7493H40.8982V88.79H43.9389V85.7493Z" fill="#183651"/>
<path d="M56.1019 10.0344H53.0612V13.0752H56.1019V10.0344Z" fill="#183651"/>
<path d="M50.0204 10.0344H46.9797V13.0752H50.0204V10.0344Z" fill="#183651"/>
<path d="M43.9389 10.0344H40.8982V13.0752H43.9389V10.0344Z" fill="#183651"/>
<path d="M48.5 45.1552C53.958 45.1552 58.3824 40.7308 58.3824 35.2728C58.3824 29.8148 53.958 25.3904 48.5 25.3904C43.042 25.3904 38.6176 29.8148 38.6176 35.2728C38.6176 40.7308 43.042 45.1552 48.5 45.1552Z" fill="white"/>
<path d="M48.5 46.5235C42.2665 46.5235 37.0971 41.5061 37.0971 35.1206C37.0971 28.735 42.1145 23.7178 48.5 23.7178C54.7335 23.7178 59.9028 28.735 59.9028 35.1206C59.9028 41.5061 54.7335 46.5235 48.5 46.5235ZM48.5 26.9107C43.9388 26.9107 40.1379 30.7116 40.1379 35.2726C40.1379 39.8339 43.9388 43.6348 48.5 43.6348C53.0612 43.6348 56.8621 39.8339 56.8621 35.2726C56.8621 30.7116 53.061 26.9107 48.5 26.9107Z" fill="#183651"/>
<path d="M14.4435 82.8607C18.0542 82.8607 20.9812 79.9336 20.9812 76.3231C20.9812 72.7123 18.0542 69.7854 14.4435 69.7854C10.8329 69.7854 7.90588 72.7123 7.90588 76.3231C7.90588 79.9336 10.8329 82.8607 14.4435 82.8607Z" fill="white"/>
<path d="M14.4437 84.381C10.0346 84.381 6.38562 80.7321 6.38562 76.323C6.38562 71.914 10.0346 68.2649 14.4437 68.2649C18.8527 68.2649 22.5017 71.914 22.5017 76.323C22.5017 80.7323 18.8529 84.381 14.4437 84.381ZM14.4437 71.3058C11.7071 71.3058 9.42639 73.5865 9.42639 76.3232C9.42639 79.0598 11.7069 81.3404 14.4437 81.3404C17.1804 81.3404 19.461 79.06 19.461 76.3232C19.461 73.5865 17.1804 71.3058 14.4437 71.3058Z" fill="#183651"/>
<path d="M14.4436 82.8606C7.29775 82.8606 1.52039 88.6379 1.52039 95.7839H27.3669C27.3669 88.6381 21.5894 82.8606 14.4436 82.8606Z" fill="#F06151"/>
<path d="M27.3667 97.304H1.52039C0.608195 97.304 0 96.6958 0 95.7837C0 87.8777 6.53766 81.3401 14.4436 81.3401C22.3495 81.3401 28.8872 87.8777 28.8872 95.7837C28.887 96.6958 28.2789 97.304 27.3667 97.304ZM3.04078 94.2632H25.6945C24.9343 88.6377 20.2209 84.3808 14.2915 84.3808C8.36205 84.3808 3.80088 88.6379 3.04078 94.2632Z" fill="#183651"/>
<path d="M14.4435 14.5956C18.0542 14.5956 20.9812 11.6686 20.9812 8.05793C20.9812 4.44727 18.0542 1.52026 14.4435 1.52026C10.8329 1.52026 7.90588 4.44727 7.90588 8.05793C7.90588 11.6686 10.8329 14.5956 14.4435 14.5956Z" fill="white"/>
<path d="M14.4437 16.1159C10.0346 16.1159 6.38562 12.4669 6.38562 8.05787C6.38562 3.64879 10.0346 0 14.4437 0C18.8527 0 22.5017 3.64898 22.5017 8.05806C22.5017 12.4671 18.8529 16.1159 14.4437 16.1159ZM14.4437 3.04079C11.7071 3.04079 9.42639 5.32127 9.42639 8.05806C9.42639 10.7948 11.7071 13.0753 14.4437 13.0753C17.1803 13.0753 19.461 10.7948 19.461 8.05806C19.461 5.32127 17.1804 3.04079 14.4437 3.04079Z" fill="#183651"/>
<path d="M14.4436 14.5955C7.29775 14.5955 1.52039 20.3728 1.52039 27.5186H27.3669C27.3669 20.373 21.5894 14.5955 14.4436 14.5955Z" fill="#2EA0DA"/>
<path d="M27.3667 29.0392H1.52039C0.608195 29.0392 0 28.431 0 27.5189C0 19.613 6.53766 13.0752 14.4436 13.0752C22.3495 13.0752 28.8872 19.613 28.8872 27.5189C28.887 28.431 28.2789 29.0392 27.3667 29.0392ZM3.04078 25.9984H25.6945C24.9343 20.3729 20.2209 16.116 14.2915 16.116C8.36205 16.116 3.80088 20.3731 3.04078 25.9984Z" fill="#183651"/>
<path d="M82.5564 82.8607C86.1672 82.8607 89.0941 79.9336 89.0941 76.3231C89.0941 72.7123 86.1672 69.7854 82.5564 69.7854C78.9458 69.7854 76.0187 72.7123 76.0187 76.3231C76.0187 79.9336 78.9458 82.8607 82.5564 82.8607Z" fill="white"/>
<path d="M82.5564 84.381C78.1474 84.381 74.4985 80.7321 74.4985 76.323C74.4985 71.914 78.1474 68.2649 82.5564 68.2649C86.9655 68.2649 90.6146 71.914 90.6146 76.323C90.6144 80.7323 86.9655 84.381 82.5564 84.381ZM82.5564 71.3058C79.8198 71.3058 77.5392 73.5865 77.5392 76.3232C77.5392 79.0598 79.8196 81.3404 82.5564 81.3404C85.293 81.3404 87.5738 79.06 87.5738 76.3232C87.5736 73.5865 85.293 71.3058 82.5564 71.3058Z" fill="#183651"/>
<path d="M82.5564 82.8606C75.4106 82.8606 69.6333 88.6379 69.6333 95.7839H95.4798C95.4796 88.6381 89.702 82.8606 82.5564 82.8606Z" fill="#4FBF9F"/>
<path d="M95.4795 97.304H69.6332C68.7209 97.304 68.1128 96.6958 68.1128 95.7837C68.1128 87.8777 74.6504 81.3401 82.5564 81.3401C90.4623 81.3401 97 87.8777 97 95.7837C96.9998 96.6958 96.3919 97.304 95.4795 97.304ZM71.3055 94.2632H93.9591C93.1989 88.6377 88.4857 84.3808 82.5562 84.3808C76.6267 84.3808 71.9137 88.6379 71.3055 94.2632Z" fill="#183651"/>
<path d="M82.5564 14.5956C86.1672 14.5956 89.0941 11.6686 89.0941 8.05793C89.0941 4.44727 86.1672 1.52026 82.5564 1.52026C78.9458 1.52026 76.0187 4.44727 76.0187 8.05793C76.0187 11.6686 78.9458 14.5956 82.5564 14.5956Z" fill="white"/>
<path d="M82.5564 16.1159C78.1474 16.1159 74.4985 12.4669 74.4985 8.05787C74.4985 3.64879 78.1474 0 82.5564 0C86.9655 0 90.6146 3.64898 90.6146 8.05806C90.6146 12.4671 86.9655 16.1159 82.5564 16.1159ZM82.5564 3.04079C79.8198 3.04079 77.5392 5.32127 77.5392 8.05806C77.5392 10.7948 79.8196 13.0753 82.5564 13.0753C85.293 13.0753 87.5738 10.7948 87.5738 8.05806C87.5738 5.32127 85.293 3.04079 82.5564 3.04079Z" fill="#183651"/>
<path d="M82.5564 14.5955C75.4106 14.5955 69.6333 20.3728 69.6333 27.5186H95.4798C95.4796 20.373 89.702 14.5955 82.5564 14.5955Z" fill="#FBBD5E"/>
<path d="M95.4795 29.0392H69.6332C68.7209 29.0392 68.1128 28.431 68.1128 27.5189C68.1128 19.613 74.6504 13.0752 82.5564 13.0752C90.4623 13.0752 97 19.613 97 27.5189C96.9998 28.431 96.3919 29.0392 95.4795 29.0392ZM71.3055 25.9984H93.9591C93.1989 20.3729 88.4857 16.116 82.5562 16.116C76.6267 16.116 71.9137 20.3731 71.3055 25.9984Z" fill="#183651"/>
</svg>
