<svg width="479" height="413" viewBox="0 0 479 413" fill="none" xmlns="http://www.w3.org/2000/svg">
<g clip-path="url(#clip0_2_65)">
<path d="M349.007 38.3325L254.421 1.73943L217.004 98.4542L311.591 135.047L349.007 38.3325Z" stroke="black" stroke-width="2" stroke-miterlimit="10"/>
</g>
<circle cx="94.5" cy="241.354" r="94.5" fill="#FF8165"/>
<circle cx="14" cy="14" r="14" transform="matrix(-1 0 0 1 399 164.854)" fill="#FF9900"/>
<g clip-path="url(#clip1_2_65)">
<path d="M368.339 412.854L350.688 389.683L333.942 410.886L331 408.7L350.914 383.781L368.339 406.952L386.67 383.781L404.321 406.952L422.651 383.781L440.755 406.952L459.086 383.999L479 408.7L476.058 410.886L459.086 389.683L440.755 412.854L422.651 389.683L404.321 412.854L386.67 389.683L368.339 412.854Z" fill="black"/>
<path d="M368.339 383.781L350.688 360.829L333.942 382.032L331 379.846L350.914 354.927L368.339 377.879L386.67 354.927L404.321 377.879L422.651 354.927L440.755 377.879L459.086 354.927L479 379.846L476.058 382.032L459.086 360.829L440.755 383.781L422.651 360.829L404.321 383.781L386.67 360.829L368.339 383.781Z" fill="black"/>
<path d="M368.339 354.927L350.688 331.756L333.942 352.959L331 350.773L350.914 325.854L368.339 349.025L386.67 325.854L404.321 349.025L422.651 325.854L440.755 349.025L459.086 325.854L479 350.773L476.058 352.959L459.086 331.756L440.755 354.927L422.651 331.756L404.321 354.927L386.67 331.756L368.339 354.927Z" fill="black"/>
</g>
<circle cx="55" cy="57.8537" r="18" stroke="black" stroke-width="2"/>
<defs>
<clipPath id="clip0_2_65">
<rect width="104.097" height="106.394" fill="white" transform="translate(253.657) rotate(21.1502)"/>
</clipPath>
<clipPath id="clip1_2_65">
<rect width="148" height="87" fill="white" transform="translate(331 325.854)"/>
</clipPath>
</defs>
</svg>
