<svg width="14" height="14" viewBox="0 0 14 14" fill="none" xmlns="http://www.w3.org/2000/svg">
<path opacity="0.994" fill-rule="evenodd" clip-rule="evenodd" d="M1.58594 0C5.19533 0 8.80472 0 12.4141 0C13.28 0.191407 13.8086 0.720054 14 1.58594C14 5.19533 14 8.80472 14 12.4141C13.8086 13.28 13.28 13.8086 12.4141 14C8.80472 14 5.19533 14 1.58594 14C0.720054 13.8086 0.191407 13.28 0 12.4141C0 8.80472 0 5.19533 0 1.58594C0.191407 0.720054 0.720054 0.191407 1.58594 0ZM3.82814 2.62501C4.41868 2.66413 4.80606 2.96492 4.99025 3.52736C5.09512 4.16078 4.86269 4.62106 4.29298 4.90822C3.54483 5.12377 3.02073 4.87311 2.72071 4.15626C2.58391 3.49566 2.81633 3.01715 3.41798 2.72071C3.55593 2.67765 3.69265 2.64576 3.82814 2.62501ZM8.85941 5.44143C9.37672 5.39223 9.86891 5.47883 10.336 5.70119C10.7891 6.00993 11.0763 6.43376 11.1973 6.97268C11.2516 7.21612 11.2881 7.46222 11.3067 7.71096C11.3249 8.87764 11.3249 10.0443 11.3067 11.211C11.2748 11.2611 11.2338 11.3021 11.1836 11.334C10.6641 11.3523 10.1446 11.3523 9.62503 11.334C9.5762 11.3126 9.53518 11.2807 9.50199 11.2383C9.47401 10.0998 9.44667 8.9605 9.41995 7.82034C9.26691 7.14886 8.85222 6.88909 8.17581 7.04104C7.81476 7.19242 7.59144 7.46129 7.50589 7.84768C7.48177 7.93762 7.46356 8.02878 7.4512 8.12112C7.45087 9.16249 7.43263 10.2016 7.39651 11.2383C7.34314 11.3038 7.27478 11.3448 7.19143 11.3614C6.75393 11.3796 6.31643 11.3796 5.87893 11.3614C5.77125 11.3555 5.69375 11.3054 5.6465 11.211C5.61935 9.34935 5.62846 7.48997 5.67385 5.63283C5.70991 5.5785 5.76004 5.54659 5.82424 5.53713C6.29819 5.51889 6.77217 5.51889 7.24612 5.53713C7.33042 5.55862 7.38965 5.60874 7.42385 5.68752C7.43296 5.87893 7.44209 6.07033 7.4512 6.26174C7.79499 5.77311 8.2644 5.49967 8.85941 5.44143ZM3.14454 5.52346C3.60947 5.51889 4.07432 5.52346 4.53908 5.53713C4.64389 5.56904 4.71225 5.6374 4.74416 5.74221C4.7624 7.5469 4.7624 9.3516 4.74416 11.1563C4.70599 11.2856 4.61941 11.3539 4.48439 11.3614C4.06513 11.3796 3.64584 11.3796 3.22657 11.3614C3.0703 11.3418 2.9746 11.2552 2.93946 11.1016C2.92123 9.33336 2.92123 7.56514 2.93946 5.7969C2.95234 5.66132 3.0207 5.57019 3.14454 5.52346Z" fill="white"/>
</svg>
