<svg width="150" height="196" viewBox="0 0 150 196" fill="none" xmlns="http://www.w3.org/2000/svg">
<g clip-path="url(#clip0_8_34)">
<path d="M83.0707 135.719L48.5901 125.953L53.4194 108.902C55.1474 102.801 57.2602 98.3296 59.7136 95.6448C62.167 92.9599 66.767 89.8691 73.2887 85.9707L93.1231 74.5207C96.0705 72.4827 98.3433 69.2398 99.5396 65.016C100.736 60.7922 100.501 56.8391 98.9919 53.201C97.4384 49.7193 94.7026 47.4236 90.7844 46.3139C86.8661 45.2042 83.0874 45.9928 79.4483 48.6798C75.8092 51.3668 73.0013 55.3031 70.7794 60.7573L34.7316 50.5479C40.7089 36.0183 49.5617 25.6827 61.2455 19.6977C73.1304 13.6005 86.0814 12.7059 100.187 16.7009C114.293 20.6958 124.626 27.8471 131.389 38.0426C138.152 48.2382 139.527 60.1187 135.673 73.7287C133.945 79.8297 131.921 83.988 129.668 86.5608C127.259 89.0892 125.743 90.8565 124.761 91.9305C123.78 93.0044 121.838 94.4821 118.89 96.5201C115.987 98.4017 114.089 99.723 113.084 100.283C108.46 102.86 104.038 105.325 99.8602 107.522C95.6828 109.719 92.8921 111.801 91.219 113.524C89.5459 115.247 88.1896 118.242 87.0377 122.31L83.2274 135.763L83.0707 135.719ZM40.0109 169.994C37.2003 164.974 36.6487 159.748 38.1994 154.273C39.7944 148.641 43.0043 144.481 47.9859 141.836C53.0118 139.035 58.2454 138.489 63.7309 140.043C69.3732 141.641 73.5434 144.849 76.1973 149.826C79.0079 154.846 79.5595 160.072 78.0088 165.547C76.4138 171.179 73.2039 175.339 68.2223 177.984C63.1964 180.785 57.9628 181.331 52.4773 179.777C46.835 178.179 42.6648 174.971 40.0109 169.994Z" fill="black"/>
<path d="M52.0343 181.342C46.0785 179.655 41.4824 176.157 38.6037 170.779C35.6807 165.557 34.9485 159.773 36.6321 153.829C38.3157 147.884 41.8153 143.299 47.199 140.43C52.4259 137.517 58.2182 136.791 64.174 138.478C70.1297 140.165 74.7258 143.663 77.6045 149.041C80.5275 154.263 81.2597 160.047 79.5761 165.991C77.8925 171.936 74.3929 176.521 69.0093 179.39C63.7824 182.303 57.99 183.029 52.0343 181.342ZM63.2878 141.607C58.1158 140.142 53.3967 140.664 48.7729 143.242C44.1491 145.819 41.2288 149.554 39.7667 154.717C38.3047 159.879 38.8324 164.591 41.4182 169.21C44.0039 173.829 47.7483 176.748 52.9204 178.213C58.0924 179.678 62.8115 179.156 67.4353 176.578C72.0591 174.001 74.9794 170.266 76.4415 165.103C77.9036 159.941 77.3758 155.229 74.79 150.61C72.2043 145.991 68.4599 143.072 63.2878 141.607ZM84.1949 137.727L46.5798 127.074L51.8522 108.458C53.6687 102.044 55.8258 97.4164 58.4802 94.6195C61.1347 91.8226 65.6223 88.531 72.5018 84.5649L92.4928 73.1593C95.0382 71.3454 97.0214 68.5274 98.129 64.6165C99.2367 60.7056 99.07 57.1097 97.5847 53.9853C96.0993 50.8609 93.7894 48.8548 90.3413 47.8782C86.8933 46.9017 83.6734 47.5106 80.4363 49.9735C77.0425 52.392 74.4357 56.2163 72.3024 61.3576L71.7912 62.5647L32.6088 51.4676L33.2529 49.7912C39.3189 34.9487 48.618 24.2326 60.6596 18.1798C72.7012 12.1271 86.211 11.0527 100.63 15.1365C115.206 19.2646 125.966 26.7055 132.841 37.1018C139.671 47.6546 141.228 60.0933 137.284 74.0161C135.512 80.2736 133.399 84.7447 130.745 87.5416C128.336 90.07 126.819 91.8374 125.838 92.9113C124.812 94.1417 122.826 95.7759 119.722 97.7695C116.774 99.8074 114.764 100.928 113.759 101.488C109.135 104.065 104.712 106.53 100.535 108.727C96.5584 110.811 93.812 112.737 92.3399 114.348C90.9122 115.803 89.6002 118.642 88.5369 122.396L84.1949 137.727ZM50.6005 124.833L81.9465 133.711L85.358 121.665C86.5985 117.285 88.1559 114.177 89.8732 112.298C91.5906 110.418 94.538 108.38 98.9165 106.072C103.094 103.875 107.517 101.41 112.141 98.833C113.146 98.2728 114.999 97.1079 117.902 95.2264C121.409 93.0087 122.836 91.5542 123.371 90.8608C124.353 89.7869 126.07 87.9075 128.322 85.3347C130.486 83.0748 132.354 78.8721 133.949 73.2404C137.626 60.2562 136.319 48.7329 129.937 38.9834C123.601 29.0775 113.536 22.1714 99.744 18.2652C86.1086 14.4034 73.471 15.3868 62.0325 21.1034C51.1528 26.6403 42.7226 36.0817 36.8987 49.4718L69.8119 58.7934C72.0576 53.853 75.0222 49.961 78.4603 47.3861C82.5015 44.475 86.7947 43.6631 91.1831 44.906C95.5715 46.1488 98.7333 48.7341 100.467 52.7739C102.246 56.6572 102.392 60.9232 101.063 65.6163C99.7334 70.3094 97.4163 73.7088 94.0225 76.1273L73.9871 87.6894C67.5097 91.4313 63.0664 94.5665 60.6573 97.0949C58.4492 99.5113 56.3807 103.826 54.7414 109.614L50.4438 124.788L50.6005 124.833Z" fill="white"/>
</g>
<defs>
<clipPath id="clip0_8_34">
<rect width="106.707" height="172.913" fill="white" transform="translate(47.1853) scale(1.00142) rotate(15.813)"/>
</clipPath>
</defs>
</svg>
